# xmcd CD database file
#
# Track frame offsets:
#	150
#	17840
#	34724
#	55243
#	69961
#	83659
#	97838
#	110688
#	130100
#	140469
#	156857
#	176030
#	187551
#	204767
#	219524
#
# Disc length: 3151 seconds
#
# Revision: 0
# Processed by: cddbd v1.5.2PL0 Copyright (c) Steve Scherf et al.
# Submitted via: CDex 1.70beta2
#
DISCID=bc0c4d0f
DTITLE=Williams, Brent - Cdn. - NS - Old Country Memories
DYEAR=1900
DGENRE=Country
TTITLE0=Keep On the Sunnyside
TTITLE1=Ashes of Love
TTITLE2=Sinday Morning Comin' Down
TTITLE3=Wreck on the Highway
TTITLE4=Tennessee Flat Top Box
TTITLE5=Wildwood Flower
TTITLE6=I Wouldn't Change You If I Could
TTITLE7=Old Dogs, Children and Watermellon Wine
TTITLE8=Waltz Across Texas
TTITLE9=I'm Thinking Tonight of My Blue Eyes
TTITLE10=Old Log Cabin For Sale
TTITLE11=Springtime In Alaska
TTITLE12=Bring Mary Home
TTITLE13=Long Black Veil
TTITLE14=Seven Spanish Angles
EXTD=
EXTT0=
EXTT1=
EXTT2=
EXTT3=
EXTT4=
EXTT5=
EXTT6=
EXTT7=
EXTT8=
EXTT9=
EXTT10=
EXTT11=
EXTT12=
EXTT13=
EXTT14=
PLAYORDER=
